<svg height="958" width="720" xmlns="http://www.w3.org/2000/svg">
<rect height="958" fill="#555" width="720"></rect>
<text fill="#7f7" font-family="Courier New" font-size="12" xml:space="preserve">
<tspan x="10" y="26">40 megabytes installed</tspan>
<tspan x="10" y="42"></tspan>
<tspan x="10" y="58">node_modules</tspan>
<tspan x="10" y="74">└─┬ alloy@1.9.11 </tspan>
<tspan x="10" y="90">  ├── colors@0.6.0-1 </tspan>
<tspan x="10" y="106">  ├── commander@0.6.1 </tspan>
<tspan x="10" y="122">  ├── ejs@2.3.4 </tspan>
<tspan x="10" y="138">  ├─┬ global-paths@0.1.2 </tspan>
<tspan x="10" y="154">  │ ├── array-unique@0.2.1 </tspan>
<tspan x="10" y="170">  │ ├─┬ global-modules@0.2.3 </tspan>
<tspan x="10" y="186">  │ │ ├─┬ global-prefix@0.1.5 </tspan>
<tspan x="10" y="202">  │ │ │ ├─┬ homedir-polyfill@1.0.1 </tspan>
<tspan x="10" y="218">  │ │ │ │ └── parse-passwd@1.0.0 </tspan>
<tspan x="10" y="234">  │ │ │ ├── ini@1.3.4 </tspan>
<tspan x="10" y="250">  │ │ │ ├── is-windows@0.2.0 </tspan>
<tspan x="10" y="266">  │ │ │ └─┬ which@1.2.14 </tspan>
<tspan x="10" y="282">  │ │ │   └── isexe@2.0.0 </tspan>
<tspan x="10" y="298">  │ │ └── is-windows@0.2.0 </tspan>
<tspan x="10" y="314">  │ └── is-windows@0.1.1 </tspan>
<tspan x="10" y="330">  ├─┬ jsonlint@1.5.1 </tspan>
<tspan x="10" y="346">  │ ├── JSV@4.0.2 </tspan>
<tspan x="10" y="362">  │ └─┬ nomnom@1.8.1 </tspan>
<tspan x="10" y="378">  │   ├─┬ chalk@0.4.0 </tspan>
<tspan x="10" y="394">  │   │ ├── ansi-styles@1.0.0 </tspan>
<tspan x="10" y="410">  │   │ ├── has-color@0.1.7 </tspan>
<tspan x="10" y="426">  │   │ └── strip-ansi@0.1.1 </tspan>
<tspan x="10" y="442">  │   └── underscore@1.6.0 </tspan>
<tspan x="10" y="458">  ├── moment@2.17.1 </tspan>
<tspan x="10" y="474">  ├─┬ node.extend@1.0.10 </tspan>
<tspan x="10" y="490">  │ └── is@0.3.0 </tspan>
<tspan x="10" y="506">  ├── pkginfo@0.2.2 </tspan>
<tspan x="10" y="522">  ├─┬ resolve@1.3.2 </tspan>
<tspan x="10" y="538">  │ └── path-parse@1.0.5 </tspan>
<tspan x="10" y="554">  ├─┬ source-map@0.1.9 </tspan>
<tspan x="10" y="570">  │ └── amdefine@1.0.1 </tspan>
<tspan x="10" y="586">  ├─┬ uglify-js@2.6.1 </tspan>
<tspan x="10" y="602">  │ ├── async@0.2.10 </tspan>
<tspan x="10" y="618">  │ ├── source-map@0.5.6 </tspan>
<tspan x="10" y="634">  │ ├── uglify-to-browserify@1.0.2 </tspan>
<tspan x="10" y="650">  │ └─┬ yargs@3.10.0 </tspan>
<tspan x="10" y="666">  │   ├── camelcase@1.2.1 </tspan>
<tspan x="10" y="682">  │   ├─┬ cliui@2.1.0 </tspan>
<tspan x="10" y="698">  │   │ ├─┬ center-align@0.1.3 </tspan>
<tspan x="10" y="714">  │   │ │ ├─┬ align-text@0.1.4 </tspan>
<tspan x="10" y="730">  │   │ │ │ ├─┬ kind-of@3.1.0 </tspan>
<tspan x="10" y="746">  │   │ │ │ │ └── is-buffer@1.1.5 </tspan>
<tspan x="10" y="762">  │   │ │ │ ├── longest@1.0.1 </tspan>
<tspan x="10" y="778">  │   │ │ │ └── repeat-string@1.6.1 </tspan>
<tspan x="10" y="794">  │   │ │ └── lazy-cache@1.0.4 </tspan>
<tspan x="10" y="810">  │   │ ├── right-align@0.1.3 </tspan>
<tspan x="10" y="826">  │   │ └── wordwrap@0.0.2 </tspan>
<tspan x="10" y="842">  │   ├── decamelize@1.2.0 </tspan>
<tspan x="10" y="858">  │   └── window-size@0.1.0 </tspan>
<tspan x="10" y="874">  ├── wrench@1.3.9 </tspan>
<tspan x="10" y="890">  ├─┬ xml2tss@0.0.5 </tspan>
<tspan x="10" y="906">  │ └─┬ xml2js@0.2.8 </tspan>
<tspan x="10" y="922">  │   └── sax@0.5.8 </tspan>
<tspan x="10" y="938">  └── xmldom@0.1.19</tspan>
</text>
</svg>
